<?xml version="1.0" standalone="no"?>
<!DOCTYPE svg PUBLIC "-//W3C//DTD SVG 20010904//EN"
 "http://www.w3.org/TR/2001/REC-SVG-20010904/DTD/svg10.dtd">
<svg version="1.0" xmlns="http://www.w3.org/2000/svg"
 width="200.000000pt" height="200.000000pt" viewBox="0 0 200.000000 200.000000"
 preserveAspectRatio="xMidYMid meet">
<metadata>
Created by potrace 1.11, written by Peter Selinger 2001-2013
</metadata>
<g transform="translate(0.000000,200.000000) scale(0.100000,-0.100000)"
fill="#000000" stroke="none">
<path d="M958 1750 c-32 -17 -94 -56 -323 -205 -27 -18 -149 -97 -270 -175
-121 -77 -230 -150 -243 -160 -27 -24 -28 -64 -2 -90 37 -37 49 -33 245 95 28
18 180 117 340 220 l289 187 31 -18 c16 -10 102 -65 190 -122 88 -58 183 -119
210 -137 28 -18 109 -70 180 -117 243 -159 235 -155 273 -115 43 45 29 75 -62
134 -190 124 -269 175 -366 238 -211 138 -443 285 -449 285 -3 0 -23 -9 -43
-20z"/>
<path d="M460 1130 c-23 -17 -23 -18 -24 -248 -1 -127 2 -244 6 -260 4 -16 18
-33 30 -39 14 -6 215 -9 529 -9 484 1 508 2 528 20 20 18 21 28 21 266 0 223
-2 248 -17 262 -31 27 -58 30 -84 9 -24 -19 -24 -23 -29 -223 l-5 -203 -422 0
-423 0 -1 25 c-1 14 -1 103 -1 198 -1 145 -3 176 -17 192 -22 27 -62 32 -91
10z"/>
<path d="M350 331 c-5 -11 -10 -31 -10 -45 0 -55 -23 -53 654 -52 402 1 628 5
635 11 13 14 16 45 8 78 l-7 27 -635 0 c-617 0 -635 -1 -645 -19z"/>
</g>
</svg>
