<svg version="1.0" xmlns="http://www.w3.org/2000/svg" width="266.667" height="266.667" viewBox="0 0 200 200"><path d="M95.8 25c-3.2 1.7-9.4 5.6-32.3 20.5-2.7 1.8-14.9 9.7-27 17.5-12.1 7.7-23 15-24.3 16-2.7 2.4-2.8 6.4-.2 9 3.7 3.7 4.9 3.3 24.5-9.5 2.8-1.8 18-11.7 34-22l28.9-18.7 3.1 1.8c1.6 1 10.2 6.5 19 12.2 8.8 5.8 18.3 11.9 21 13.7 2.8 1.8 10.9 7 18 11.7 24.3 15.9 23.5 15.5 27.3 11.5 4.3-4.5 2.9-7.5-6.2-13.4-19-12.4-26.9-17.5-36.6-23.8C123.9 37.7 100.7 23 100.1 23c-.3 0-2.3.9-4.3 2z"/><path d="M46 87c-2.3 1.7-2.3 1.8-2.4 24.8-.1 12.7.2 24.4.6 26 .4 1.6 1.8 3.3 3 3.9 1.4.6 21.5.9 52.9.9 48.4-.1 50.8-.2 52.8-2s2.1-2.8 2.1-26.6c0-22.3-.2-24.8-1.7-26.2-3.1-2.7-5.8-3-8.4-.9-2.4 1.9-2.4 2.3-2.9 22.3l-.5 20.3H57l-.1-2.5c-.1-1.4-.1-10.3-.1-19.8-.1-14.5-.3-17.6-1.7-19.2-2.2-2.7-6.2-3.2-9.1-1zm-11 79.9c-.5 1.1-1 3.1-1 4.5 0 5.5-2.3 5.3 65.4 5.2 40.2-.1 62.8-.5 63.5-1.1 1.3-1.4 1.6-4.5.8-7.8l-.7-2.7H99.5c-61.7 0-63.5.1-64.5 1.9z"/></svg>